<svg xmlns="http://www.w3.org/2000/svg" viewBox="2.5 2.5 27 32.766" role="img" aria-label="solstone — solstone.app">
  <title>solstone — solstone.app</title>
  <!-- GENERATED — do not hand-edit. This file is emitted by the solstone mark
       generator; edit the generator and re-run. It is the one place the
       construction is defined.

       geometry  ring r=6.5 stroke=1.736067977 (2/phi+1/2) · ten beams at
                 36 deg, tip r=13.5, base r=9.118033989 (8.5+1/phi),
                 beam 33 deg + 3 deg air, inward bow 0.135, gap 1.75=7/4
       palette   gold #FFCC33 (hue 45.0) · orange #E8913A (hue 30.0)
       decisions 260815 geometry · 260819 G1 palette · G2 beams-and-ring-only
                 · G3 six states
       FLATTENED on purpose — the ten beams are one path, with no defs/use
       indirection. Consumers lift the mark with a naive non-greedy group
       regex, which leaves a defs block behind and renders an empty tile.
       This comment deliberately contains no SVG tag text, for the same reason.
       RENDERING RULE: render from this SVG at each target size; never
       downsample and never upsample.

       "solstone.app" — Comfortaa Bold outlines, scale=0.0044 SVG/fu,
       uniform gap 33fu, 25.33 wide, centred at (16, 33.024).
       The word sits outside the ring — a lockup, not a word mark. -->
  <path fill="#FFFFFF" d="M16 2.5 Q17.057687783 5.007810543 18.589661566 7.257449068 A9.118033989 9.118033989 0 0 0 13.410338434 7.257449068 Q14.942312217 5.007810543 16 2.5 Z M23.935100906 5.078270576 Q23.316734245 7.728825204 23.233822722 10.449292599 A9.118033989 9.118033989 0 0 0 19.043662288 7.404962845 Q21.605359462 6.485438643 23.935100906 5.078270576 Z M28.83926297 11.828270576 Q26.781036911 13.609147511 25.114909466 15.761317696 A9.118033989 9.118033989 0 0 0 23.514410599 10.83548868 Q26.127349912 11.597305794 28.83926297 11.828270576 Z M28.83926297 20.171729424 Q26.127349912 20.402694206 23.514410599 21.16451132 A9.118033989 9.118033989 0 0 0 25.114909466 16.238682304 Q26.781036911 18.390852489 28.83926297 20.171729424 Z M23.935100906 26.921729424 Q21.605359462 25.514561357 19.043662288 24.595037155 A9.118033989 9.118033989 0 0 0 23.233822722 21.550707401 Q23.316734245 24.271174796 23.935100906 26.921729424 Z M16 29.5 Q14.942312217 26.992189457 13.410338434 24.742550932 A9.118033989 9.118033989 0 0 0 18.589661566 24.742550932 Q17.057687783 26.992189457 16 29.5 Z M8.064899094 26.921729424 Q8.683265755 24.271174796 8.766177278 21.550707401 A9.118033989 9.118033989 0 0 0 12.956337712 24.595037155 Q10.394640538 25.514561357 8.064899094 26.921729424 Z M3.16073703 20.171729424 Q5.218963089 18.390852489 6.885090534 16.238682304 A9.118033989 9.118033989 0 0 0 8.485589401 21.16451132 Q5.872650088 20.402694206 3.16073703 20.171729424 Z M3.16073703 11.828270576 Q5.872650088 11.597305794 8.485589401 10.83548868 A9.118033989 9.118033989 0 0 0 6.885090534 15.761317696 Q5.218963089 13.609147511 3.16073703 11.828270576 Z M8.064899094 5.078270576 Q10.394640538 6.485438643 12.956337712 7.404962845 A9.118033989 9.118033989 0 0 0 8.766177278 10.449292599 Q8.683265755 7.728825204 8.064899094 5.078270576 Z"/>
  <circle cx="16" cy="16" r="6.5" fill="none" stroke="#FFFFFF" stroke-width="1.736067977"/>
  <path fill="#FFFFFF" fill-rule="nonzero" d="M4.370 34.254Q4.062 34.254 3.801 34.159Q3.539 34.065 3.394 33.920Q3.328 33.849 3.339 33.759Q3.350 33.669 3.424 33.612Q3.512 33.541 3.598 33.552Q3.684 33.563 3.746 33.629Q3.820 33.713 3.985 33.785Q4.150 33.858 4.353 33.858Q4.608 33.858 4.742 33.774Q4.876 33.691 4.881 33.559Q4.885 33.427 4.755 33.330Q4.626 33.233 4.282 33.172Q3.838 33.084 3.638 32.908Q3.438 32.732 3.438 32.476Q3.438 32.252 3.570 32.105Q3.702 31.957 3.908 31.885Q4.115 31.812 4.340 31.812Q4.630 31.812 4.854 31.904Q5.079 31.997 5.211 32.160Q5.272 32.230 5.268 32.307Q5.264 32.384 5.193 32.437Q5.123 32.485 5.026 32.468Q4.929 32.450 4.863 32.388Q4.753 32.283 4.626 32.243Q4.498 32.204 4.331 32.204Q4.137 32.204 4.003 32.270Q3.869 32.336 3.869 32.463Q3.869 32.542 3.911 32.606Q3.952 32.670 4.076 32.721Q4.199 32.771 4.436 32.820Q4.766 32.886 4.958 32.987Q5.149 33.088 5.233 33.222Q5.316 33.356 5.316 33.532Q5.316 33.735 5.209 33.898Q5.101 34.060 4.892 34.157Q4.683 34.254 4.370 34.254Z"/>
  <path fill="#FFFFFF" fill-rule="nonzero" d="M6.676 34.254Q6.320 34.254 6.047 34.098Q5.774 33.942 5.618 33.667Q5.462 33.392 5.462 33.035Q5.462 32.674 5.618 32.399Q5.774 32.124 6.047 31.968Q6.320 31.812 6.676 31.812Q7.028 31.812 7.301 31.968Q7.574 32.124 7.730 32.399Q7.886 32.674 7.886 33.035Q7.886 33.392 7.732 33.667Q7.578 33.942 7.305 34.098Q7.032 34.254 6.676 34.254ZM6.676 33.858Q6.905 33.858 7.081 33.752Q7.257 33.647 7.356 33.462Q7.455 33.277 7.455 33.035Q7.455 32.793 7.356 32.606Q7.257 32.419 7.081 32.314Q6.905 32.208 6.676 32.208Q6.447 32.208 6.271 32.314Q6.095 32.419 5.994 32.606Q5.893 32.793 5.893 33.035Q5.893 33.277 5.994 33.462Q6.095 33.647 6.271 33.752Q6.447 33.858 6.676 33.858Z"/>
  <path fill="#FFFFFF" fill-rule="nonzero" d="M8.691 34.236Q8.498 34.236 8.348 34.131Q8.198 34.025 8.115 33.843Q8.031 33.660 8.031 33.422V31.020Q8.031 30.923 8.093 30.862Q8.154 30.800 8.251 30.800Q8.348 30.800 8.410 30.862Q8.471 30.923 8.471 31.020V33.422Q8.471 33.585 8.533 33.691Q8.594 33.796 8.691 33.796H8.801Q8.889 33.796 8.944 33.858Q8.999 33.920 8.999 34.016Q8.999 34.113 8.916 34.175Q8.832 34.236 8.700 34.236Z"/>
  <path fill="#FFFFFF" fill-rule="nonzero" d="M10.187 34.254Q9.879 34.254 9.617 34.159Q9.356 34.065 9.210 33.920Q9.144 33.849 9.155 33.759Q9.166 33.669 9.241 33.612Q9.329 33.541 9.415 33.552Q9.501 33.563 9.562 33.629Q9.637 33.713 9.802 33.785Q9.967 33.858 10.170 33.858Q10.425 33.858 10.559 33.774Q10.693 33.691 10.698 33.559Q10.702 33.427 10.572 33.330Q10.442 33.233 10.099 33.172Q9.655 33.084 9.455 32.908Q9.254 32.732 9.254 32.476Q9.254 32.252 9.386 32.105Q9.518 31.957 9.725 31.885Q9.932 31.812 10.156 31.812Q10.447 31.812 10.671 31.904Q10.896 31.997 11.028 32.160Q11.089 32.230 11.085 32.307Q11.080 32.384 11.010 32.437Q10.940 32.485 10.843 32.468Q10.746 32.450 10.680 32.388Q10.570 32.283 10.442 32.243Q10.315 32.204 10.148 32.204Q9.954 32.204 9.820 32.270Q9.686 32.336 9.686 32.463Q9.686 32.542 9.727 32.606Q9.769 32.670 9.892 32.721Q10.016 32.771 10.253 32.820Q10.583 32.886 10.775 32.987Q10.966 33.088 11.050 33.222Q11.133 33.356 11.133 33.532Q11.133 33.735 11.025 33.898Q10.918 34.060 10.709 34.157Q10.500 34.254 10.187 34.254Z"/>
  <path fill="#FFFFFF" fill-rule="nonzero" d="M12.462 34.236Q12.242 34.236 12.066 34.124Q11.890 34.012 11.789 33.818Q11.688 33.625 11.688 33.383V31.284Q11.688 31.187 11.749 31.126Q11.811 31.064 11.908 31.064Q12.004 31.064 12.066 31.126Q12.128 31.187 12.128 31.284V33.383Q12.128 33.559 12.224 33.678Q12.321 33.796 12.462 33.796H12.612Q12.691 33.796 12.746 33.858Q12.801 33.920 12.801 34.016Q12.801 34.113 12.728 34.175Q12.656 34.236 12.541 34.236ZM11.485 32.296Q11.393 32.296 11.336 32.243Q11.278 32.190 11.278 32.111Q11.278 32.023 11.336 31.970Q11.393 31.918 11.485 31.918H12.502Q12.594 31.918 12.651 31.970Q12.708 32.023 12.708 32.111Q12.708 32.190 12.651 32.243Q12.594 32.296 12.502 32.296Z"/>
  <path fill="#FFFFFF" fill-rule="nonzero" d="M14.160 34.254Q13.804 34.254 13.531 34.098Q13.258 33.942 13.102 33.667Q12.946 33.392 12.946 33.035Q12.946 32.674 13.102 32.399Q13.258 32.124 13.531 31.968Q13.804 31.812 14.160 31.812Q14.512 31.812 14.785 31.968Q15.058 32.124 15.214 32.399Q15.370 32.674 15.370 33.035Q15.370 33.392 15.216 33.667Q15.062 33.942 14.790 34.098Q14.517 34.254 14.160 34.254ZM14.160 33.858Q14.389 33.858 14.565 33.752Q14.741 33.647 14.840 33.462Q14.939 33.277 14.939 33.035Q14.939 32.793 14.840 32.606Q14.741 32.419 14.565 32.314Q14.389 32.208 14.160 32.208Q13.932 32.208 13.756 32.314Q13.580 32.419 13.478 32.606Q13.377 32.793 13.377 33.035Q13.377 33.277 13.478 33.462Q13.580 33.647 13.756 33.752Q13.932 33.858 14.160 33.858Z"/>
  <path fill="#FFFFFF" fill-rule="nonzero" d="M17.548 34.241Q17.452 34.241 17.388 34.177Q17.324 34.113 17.324 34.016V32.934Q17.324 32.683 17.232 32.525Q17.139 32.366 16.983 32.289Q16.827 32.212 16.624 32.212Q16.440 32.212 16.290 32.287Q16.140 32.362 16.052 32.487Q15.964 32.613 15.964 32.776H15.687Q15.687 32.498 15.821 32.281Q15.956 32.063 16.189 31.935Q16.422 31.808 16.712 31.808Q17.016 31.808 17.256 31.937Q17.496 32.067 17.634 32.318Q17.773 32.569 17.773 32.934V34.016Q17.773 34.113 17.709 34.177Q17.645 34.241 17.548 34.241ZM15.740 34.241Q15.643 34.241 15.579 34.177Q15.516 34.113 15.516 34.016V32.054Q15.516 31.953 15.579 31.891Q15.643 31.830 15.740 31.830Q15.841 31.830 15.903 31.891Q15.964 31.953 15.964 32.054V34.016Q15.964 34.113 15.903 34.177Q15.841 34.241 15.740 34.241Z"/>
  <path fill="#FFFFFF" fill-rule="nonzero" d="M19.172 34.254Q18.807 34.254 18.523 34.098Q18.239 33.942 18.079 33.667Q17.918 33.392 17.918 33.035Q17.918 32.674 18.070 32.399Q18.222 32.124 18.490 31.968Q18.758 31.812 19.106 31.812Q19.449 31.812 19.696 31.964Q19.942 32.116 20.072 32.382Q20.202 32.648 20.202 32.996Q20.202 33.079 20.144 33.134Q20.087 33.189 19.999 33.189H18.226V32.837H19.986L19.806 32.960Q19.801 32.740 19.718 32.567Q19.634 32.393 19.480 32.292Q19.326 32.190 19.106 32.190Q18.855 32.190 18.677 32.300Q18.499 32.410 18.406 32.602Q18.314 32.793 18.314 33.035Q18.314 33.277 18.424 33.466Q18.534 33.656 18.728 33.766Q18.921 33.876 19.172 33.876Q19.308 33.876 19.451 33.825Q19.594 33.774 19.682 33.708Q19.748 33.660 19.825 33.658Q19.902 33.656 19.960 33.704Q20.034 33.770 20.039 33.849Q20.043 33.928 19.968 33.986Q19.819 34.104 19.597 34.179Q19.374 34.254 19.172 34.254Z"/>
  <path fill="#FFFFFF" fill-rule="nonzero" d="M20.650 34.307Q20.527 34.307 20.437 34.217Q20.347 34.126 20.347 34.003Q20.347 33.876 20.437 33.785Q20.527 33.695 20.650 33.695Q20.778 33.695 20.866 33.785Q20.954 33.876 20.954 34.003Q20.954 34.126 20.866 34.217Q20.778 34.307 20.650 34.307Z"/>
  <path fill="#FFFFFF" fill-rule="nonzero" d="M22.226 34.254Q21.904 34.254 21.649 34.093Q21.394 33.933 21.247 33.658Q21.099 33.383 21.099 33.035Q21.099 32.688 21.260 32.410Q21.420 32.133 21.695 31.973Q21.970 31.812 22.314 31.812Q22.657 31.812 22.930 31.973Q23.202 32.133 23.363 32.410Q23.524 32.688 23.524 33.035H23.352Q23.352 33.383 23.205 33.658Q23.057 33.933 22.802 34.093Q22.547 34.254 22.226 34.254ZM22.314 33.858Q22.538 33.858 22.714 33.750Q22.890 33.642 22.991 33.455Q23.092 33.268 23.092 33.035Q23.092 32.798 22.991 32.611Q22.890 32.424 22.714 32.316Q22.538 32.208 22.314 32.208Q22.094 32.208 21.915 32.316Q21.737 32.424 21.634 32.611Q21.530 32.798 21.530 33.035Q21.530 33.268 21.634 33.455Q21.737 33.642 21.915 33.750Q22.094 33.858 22.314 33.858ZM23.299 34.241Q23.202 34.241 23.139 34.177Q23.075 34.113 23.075 34.016V33.343L23.158 32.877L23.524 33.035V34.016Q23.524 34.113 23.460 34.177Q23.396 34.241 23.299 34.241Z"/>
  <path fill="#FFFFFF" fill-rule="nonzero" d="M23.893 35.266Q23.796 35.266 23.733 35.202Q23.669 35.138 23.669 35.042V33.035Q23.673 32.688 23.832 32.410Q23.990 32.133 24.263 31.973Q24.536 31.812 24.879 31.812Q25.226 31.812 25.499 31.973Q25.772 32.133 25.933 32.410Q26.093 32.688 26.093 33.035Q26.093 33.383 25.946 33.658Q25.798 33.933 25.543 34.093Q25.288 34.254 24.967 34.254Q24.707 34.254 24.489 34.146Q24.272 34.038 24.118 33.854V35.042Q24.118 35.138 24.056 35.202Q23.994 35.266 23.893 35.266ZM24.879 33.858Q25.103 33.858 25.279 33.750Q25.455 33.642 25.559 33.455Q25.662 33.268 25.662 33.035Q25.662 32.798 25.559 32.611Q25.455 32.424 25.279 32.316Q25.103 32.208 24.879 32.208Q24.659 32.208 24.481 32.316Q24.302 32.424 24.201 32.611Q24.100 32.798 24.100 33.035Q24.100 33.268 24.201 33.455Q24.302 33.642 24.481 33.750Q24.659 33.858 24.879 33.858Z"/>
  <path fill="#FFFFFF" fill-rule="nonzero" d="M26.463 35.266Q26.366 35.266 26.302 35.202Q26.238 35.138 26.238 35.042V33.035Q26.243 32.688 26.401 32.410Q26.560 32.133 26.832 31.973Q27.105 31.812 27.448 31.812Q27.796 31.812 28.069 31.973Q28.342 32.133 28.502 32.410Q28.663 32.688 28.663 33.035Q28.663 33.383 28.515 33.658Q28.368 33.933 28.113 34.093Q27.858 34.254 27.536 34.254Q27.277 34.254 27.059 34.146Q26.841 34.038 26.687 33.854V35.042Q26.687 35.138 26.626 35.202Q26.564 35.266 26.463 35.266ZM27.448 33.858Q27.673 33.858 27.849 33.750Q28.025 33.642 28.128 33.455Q28.232 33.268 28.232 33.035Q28.232 32.798 28.128 32.611Q28.025 32.424 27.849 32.316Q27.673 32.208 27.448 32.208Q27.228 32.208 27.050 32.316Q26.872 32.424 26.771 32.611Q26.670 32.798 26.670 33.035Q26.670 33.268 26.771 33.455Q26.872 33.642 27.050 33.750Q27.228 33.858 27.448 33.858Z"/>
</svg>
